<svg xmlns="http://www.w3.org/2000/svg" viewBox="0 0 110.02881 43.99873"><defs><style>.a{fill:#fff;}</style></defs><title>pds-logo</title><path class="a" d="M1011.32178,538.12158a22.37873,22.37873,0,0,0-8.66748,1.582,29.22952,29.22952,0,0,1-5.92578,1.49609c-.94922.10791-1.2334-1.36377-1.51025-2.78613l-.01807-.09277a5.84091,5.84091,0,0,0-.76807-2.12842,1.33625,1.33625,0,0,0-.91113-.56543,1.2328,1.2328,0,0,0-.96436.30566l-.01611.01367a5.44082,5.44082,0,0,1-1.28027.90674c.00537-.06543.02344-.16016.03906-.24219a3.213,3.213,0,0,0,.00049-1.50537,1.35277,1.35277,0,0,0-1.01318-.97705c-.33154-.03125-.54834.22705-.81689.55859a4.28111,4.28111,0,0,1-.6084.646c-.79346.65283-1.65479,1.26367-2.48779,1.855-.84814.60156-1.72363,1.22266-2.53271,1.89209l.04883-.479c.04-.39795.06689-.66455.14355-1.36914a.73739.73739,0,0,0-.166-.5708,2.48823,2.48823,0,0,0-1.71-.57764c-1.77539-.13281-5.00293,1.74268-6.26416,2.728a8.19893,8.19893,0,0,0-2.57227,3.583,2.54883,2.54883,0,0,0-.0498,1.26465,2.94193,2.94193,0,0,0,1.04688,1.55615,3.6145,3.6145,0,0,0,2.17773.17871c1.80371-.46436,3.03662-2.05225,4.12451-3.45312.13965-.18018.27783-.35791.415-.53076q-.11792,1.15137-.24023,2.30322c-.32178.48584-.61133.93506-.88379,1.373a42.43338,42.43338,0,0,0-3.51953,6.82861,18.94761,18.94761,0,0,0-1.50244,7.60791c.06641.98926.311,2.73291,1.20557,3.292a1.10607,1.10607,0,0,0,.59082.18457.97389.97389,0,0,0,.27295-.03955c.687-.20215,1.18408-1.09912,1.541-1.85791a40.43128,40.43128,0,0,0,2.15625-6.78418,89.51686,89.51686,0,0,0,1.57178-10.0835q.19263-.28857.39014-.58643c1.59619-2.40234,3.40234-5.12207,6.06055-6.25537a9.02343,9.02343,0,0,1,.01807,2.91748c-.86182,1.39648-3.54541,6.01758-2.53271,7.84766a1.18423,1.18423,0,0,0,1.60107.437c1.61084-.78076,2.75391-5.80225,3.0625-7.69336.09717-.15234.18408-.29053.26416-.41748a5.47837,5.47837,0,0,1,1.60693-1.84326c.01611.05469.03613.12256.05908.20117.32813,1.12939,1.32666,4.56641,3.05273,4.666a12.92065,12.92065,0,0,0,5.92236-1.43555,16.75728,16.75728,0,0,1,4.10986-1.332l.07471-.01074c1.44629-.20654,4.45947-.63525,4.89453.57471l.01563.04443.04639.00684a2.01687,2.01687,0,0,0,1.95166-.78223,1.52914,1.52914,0,0,0,.23535-1.54346A1.89771,1.89771,0,0,0,1011.32178,538.12158Zm-31.38965,2.085-.27979.36182a4.3778,4.3778,0,0,1-3.25879,2.21729c-.41846.10693-.66211.10986-.76465.00635-.08838-.08984-.09229-.28857-.01172-.59131a3.33739,3.33739,0,0,1,1.44043-1.93506,8.48425,8.48425,0,0,1,3.022-1.15088.39392.39392,0,0,1,.27979.07813C980.43555,539.26855,980.481,539.50049,979.93213,540.20654Zm-.10352,9.59521a30.50851,30.50851,0,0,1-.61621,4.19678c-.66846,2.99365-1.83008,4.793-2.30322,5.09131a.18965.18965,0,0,1-.07666.03369.05749.05749,0,0,1-.00879-.02734,11.98741,11.98741,0,0,1,.94141-6.63672,26.03972,26.03972,0,0,1,2.24121-4.36621C979.93311,548.71094,979.88037,549.26416,979.82861,549.80176Z" transform="translate(-904.99951 -519.00078)"/><path class="a" d="M973.28857,534.16406a2.06282,2.06282,0,0,0,.62793.104,1.10354,1.10354,0,0,0,.84961-.32422,1.06689,1.06689,0,0,0,.01123-1.19971,1.53048,1.53048,0,0,0-1.583-1.05469c-.124-.00586-.25244-.01221-.38232-.02881h-.00049a.84677.84677,0,0,0-.70166.18408,1.369,1.369,0,0,0-.36377,1.04492C971.74609,533.61377,972.35693,533.86426,973.28857,534.16406Z" transform="translate(-904.99951 -519.00078)"/><path class="a" d="M974.88135,538.44531c-.6543-1.42822-1.4292-1.34375-2.02881-1.1123-.58789.22754-1.20117.53223-1.03711,1.27637a4.98524,4.98524,0,0,1-.91211,3.63037,7.3476,7.3476,0,0,0-.98682,2.4707,1.50935,1.50935,0,0,0,1.00586,1.79053.4512.4512,0,0,0,.13525.01807,1.21525,1.21525,0,0,0,.64063-.21924,1.24637,1.24637,0,0,0,.55469-.97266,11.6823,11.6823,0,0,1,1.74609-4.50635C974.626,539.69336,975.0791,538.87891,974.88135,538.44531Z" transform="translate(-904.99951 -519.00078)"/><path class="a" d="M967.62939,539.33447a2.24088,2.24088,0,0,1-.67969-2.42041,2.09719,2.09719,0,0,1,1.89063-1.62891c1.99561-.15479,3.02734-1.05029,2.98535-1.81445-.02734-.48926-.53809-1.0415-1.876-1.0415-.05518,0-.11182.001-.16943.00293-2.09326.06982-3.99951,1.92432-4.88477,3.61816a3.90465,3.90465,0,0,0,.7998,4.229,1.78862,1.78862,0,0,1,.7417,1.44238c-.11572.86719-1.39844,1.56348-2.88428,2.37012-.31494.1709-.64014.34717-.96582.53174-1.397.791-1.98682,2.01465-1.66113,2.66162a.85646.85646,0,0,0,.84277.4292,3.37219,3.37219,0,0,0,1.32471-.34766,18.082,18.082,0,0,0,5.16211-3.53369,2.64512,2.64512,0,0,0,.81836-2.13867A3.24873,3.24873,0,0,0,967.62939,539.33447Z" transform="translate(-904.99951 -519.00078)"/><path class="a" d="M950.45508,524.85938a16.4639,16.4639,0,0,0-11.917-5.84326,28.13522,28.13522,0,0,0-15.58594,3.96826,1.71544,1.71544,0,0,0-.86035,1.48877.8068.8068,0,0,0,.43848.71826c.38867.18164.94873.03027,1.57666-.42822,2.34277-1.71436,7.03223-3.52344,13.16064-3.44092a16.58168,16.58168,0,0,1,11.92285,5.11816,9.61732,9.61732,0,0,1,2.55811,7.52783c-1.01758,9.70508-10.69824,15.32617-14.9624,17.34814.02832-.229.07129-.55225.12451-.95508.67285-5.0918,2.72021-20.5874-.07373-23.27441a1.0753,1.0753,0,0,0-.74756-.33887.99745.99745,0,0,0-.99561.99658.94322.94322,0,0,0,.103.3833,1.59275,1.59275,0,0,1,.06348.16357c1.76074,5.73193,1.54395,13.06445-.70361,23.77051a44.87656,44.87656,0,0,1-4.00684,2.14453c-1.11133.54785-2.26025,1.11475-3.30078,1.72021a1.82194,1.82194,0,0,0-.81055,2.376c.27539.4873.91455.81836,1.88477.28857,1.87646-1.02295,2.69775-1.42432,5.24854-2.61914-.043.2041-.0874.44629-.13428.69971-.09521.51563-.19336,1.04883-.30029,1.39795-.01318.04395-.02783.0874-.04248.13086a1.53631,1.53631,0,0,0-.10693.499,1.40568,1.40568,0,0,0,1.40283,1.40527,1.446,1.446,0,0,0,1.40332-1.39844c.08594-.96387.22021-1.9043.34961-2.81348.07324-.51416.14209-1,.20361-1.4917,5.77393-3.12744,15.63525-9.84326,17.10889-19.80615A12.33011,12.33011,0,0,0,950.45508,524.85938Z" transform="translate(-904.99951 -519.00078)"/><path class="a" d="M915.7168,535.80225h2.25586l-.00049-.0791a1.48681,1.48681,0,0,0-.30371-.937,1.35824,1.35824,0,0,0-1.12207-.53613,1.31618,1.31618,0,0,0-1.09033.52441,1.46543,1.46543,0,0,0-.32129.93018,1.49267,1.49267,0,0,0,.37744.99561,1.318,1.318,0,0,0,1.05322.44434,1.50954,1.50954,0,0,0,.542-.09277,1.32748,1.32748,0,0,0,.43359-.27051,1.612,1.612,0,0,0,.33691-.4624l.03467-.06885-.417-.21826-.0376.064a1.49382,1.49382,0,0,1-.26807.35107.95166.95166,0,0,1-.29443.17041,1.03638,1.03638,0,0,1-.35791.064.85.85,0,0,1-.63428-.26562.94677.94677,0,0,1-.26709-.69043,1.19145,1.19145,0,0,1,.03223-.27246.94712.94712,0,0,1,.27832-.49756.88015.88015,0,0,1,.604-.22656.96285.96285,0,0,1,.40869.09033.8458.8458,0,0,1,.31055.23682.93574.93574,0,0,1,.15186.30029h-1.69971Z" transform="translate(-904.99951 -519.00078)"/><path class="a" d="M931.93359,536.71045a1.47979,1.47979,0,0,0,.02051-1.999,1.43077,1.43077,0,0,0-2.10742.002,1.47595,1.47595,0,0,0,.02148,1.99707,1.44778,1.44778,0,0,0,2.06543,0Zm-1.502-.16406a.89163.89163,0,0,1-.33838-.34766.988.988,0,0,1-.126-.48779.94679.94679,0,0,1,.27637-.69141.90158.90158,0,0,1,1.31494,0,.94577.94577,0,0,1,.27783.69141,1.00481,1.00481,0,0,1-.126.48828.90564.90564,0,0,1-.33838.34668A.97521.97521,0,0,1,930.43164,536.54639Z" transform="translate(-904.99951 -519.00078)"/><rect class="a" x="23.52881" y="15.31953" width="0.40332" height="2.75537"/><path class="a" d="M929.04248,533.52295a.31251.31251,0,0,0-.53369-.22266.31323.31323,0,0,0,.22021.53516.31022.31022,0,0,0,.22314-.09277A.30556.30556,0,0,0,929.04248,533.52295Z" transform="translate(-904.99951 -519.00078)"/><polygon class="a" points="22.125 14.317 22.125 15.291 21.688 15.291 21.688 15.738 22.125 15.738 22.125 18.074 22.606 18.074 22.606 15.738 23.116 15.738 23.116 15.291 22.606 15.291 22.606 14.317 22.125 14.317"/><polygon class="a" points="17.413 14.317 16.932 14.317 16.932 15.291 16.494 15.291 16.494 15.738 16.932 15.738 16.932 18.074 17.413 18.074 17.413 15.738 17.922 15.738 17.922 15.291 17.413 15.291 17.413 14.317"/><path class="a" d="M914.36182,534.959l.05762.05811.314-.33789-.05322-.05322a1.08075,1.08075,0,0,0-.75049-.37549.74537.74537,0,0,0-.54834.22021.75588.75588,0,0,0-.21533.54736.76793.76793,0,0,0,.13525.44824,1.37721,1.37721,0,0,0,.48779.38525,1.32286,1.32286,0,0,1,.38086.25635.3214.3214,0,0,1,.07227.207.32835.32835,0,0,1-.11182.24756.3806.3806,0,0,1-.2749.10693.62652.62652,0,0,1-.4624-.26123l-.05957-.07031-.3042.35791.03906.05029a1.00773,1.00773,0,0,0,.353.292.99739.99739,0,0,0,.44824.10645.80384.80384,0,0,0,.59766-.24561.8352.8352,0,0,0,.23779-.59814.77639.77639,0,0,0-.1416-.4541,1.4759,1.4759,0,0,0-.51465-.39648,1.21382,1.21382,0,0,1-.36182-.25488.30671.30671,0,0,1-.07471-.19336.262.262,0,0,1,.0874-.19531C913.86133,534.65332,914.11426,534.708,914.36182,534.959Z" transform="translate(-904.99951 -519.00078)"/><path class="a" d="M919.77,534.25a1.20951,1.20951,0,0,0-1.20361,1.2124v1.61279h.48877l.00146-1.61279a.71437.71437,0,1,1,1.42871,0v1.61279h.48926V535.4624A1.21,1.21,0,0,0,919.77,534.25Z" transform="translate(-904.99951 -519.00078)"/><path class="a" d="M906.43018,534.21436a1.4398,1.4398,0,0,0-1.43066,1.44482V538.064h.49121v-2.40479a.939.939,0,1,1,.93945.94922.92665.92665,0,0,1-.521-.15918l-.06543-.04443-.27295.41211.06445.04346a1.41165,1.41165,0,0,0,.79492.24365,1.44489,1.44489,0,0,0,0-2.88965Z" transform="translate(-904.99951 -519.00078)"/><path class="a" d="M924.70215,534.21436a1.43164,1.43164,0,0,0,0,2.86328,1.41505,1.41505,0,0,0,.79492-.2417l.06494-.04346-.27344-.40869-.06494.04346a.93934.93934,0,1,1,.418-.78125v1.4292h.49121V535.646A1.43287,1.43287,0,0,0,924.70215,534.21436Z" transform="translate(-904.99951 -519.00078)"/><path class="a" d="M911.272,534.25049a1.4511,1.4511,0,1,0,1.30078,2.04736l.03174-.07129-.42725-.19189-.03223.07227a.96051.96051,0,0,1-.873.57324.97893.97893,0,0,1,0-1.95752.96086.96086,0,0,1,.89844.63379h-1.72412v.44629h2.252v-.10205A1.43979,1.43979,0,0,0,911.272,534.25049Z" transform="translate(-904.99951 -519.00078)"/><path class="a" d="M908.32959,535.646v1.42969h.47949V535.646a.921.921,0,0,1,.89941-.93945h.07861v-.49219h-.07861A1.40757,1.40757,0,0,0,908.32959,535.646Z" transform="translate(-904.99951 -519.00078)"/><path class="a" d="M935.23975,537.0752V535.4624a1.20437,1.20437,0,1,0-2.40869,0v1.61279h.48926l.001-1.61279a.71461.71461,0,1,1,1.4292,0v1.61279Z" transform="translate(-904.99951 -519.00078)"/><path class="a" d="M1014.34375,535.4502a1.2138,1.2138,0,0,1-.36182-.25488.31125.31125,0,0,1-.0752-.19336.2608.2608,0,0,1,.08789-.19531c.16064-.15332.41357-.09863.66211.15234l.05762.05811.314-.33789-.05322-.05322a1.08082,1.08082,0,0,0-.751-.37549.745.745,0,0,0-.54785.22021.75429.75429,0,0,0-.21582.54736.76793.76793,0,0,0,.13525.44824,1.37806,1.37806,0,0,0,.48779.38525,1.34277,1.34277,0,0,1,.38135.25635.32177.32177,0,0,1,.07178.207.32709.32709,0,0,1-.11133.24756.3814.3814,0,0,1-.2749.10693.62652.62652,0,0,1-.4624-.26123l-.05957-.07031-.30371.35791.03809.05029a1.014,1.014,0,0,0,.80127.39844.80156.80156,0,0,0,.59766-.24561.83361.83361,0,0,0,.23828-.59814.77639.77639,0,0,0-.1416-.4541A1.48066,1.48066,0,0,0,1014.34375,535.4502Z" transform="translate(-904.99951 -519.00078)"/><path class="a" d="M1008.3667,537.145a1.6627,1.6627,0,0,0,.74365-.16309,1.31494,1.31494,0,0,0,.52734-.46094l.043-.06543-.38818-.25879-.04443.05713a1.04476,1.04476,0,0,1-.86768.42676,1.07535,1.07535,0,0,1-.52295-.12744.92606.92606,0,0,1-.36279-.36035.99166.99166,0,0,1-.13232-.49756.91988.91988,0,0,1,.28711-.688.99117.99117,0,0,1,.728-.2832,1.018,1.018,0,0,1,.86914.42529l.04346.05811.38867-.24414-.03906-.06592a1.20828,1.20828,0,0,0-.30176-.3457,1.486,1.486,0,0,0-.42676-.21826,1.67648,1.67648,0,0,0-.51855-.08252,1.58955,1.58955,0,0,0-.77539.19141,1.4207,1.4207,0,0,0-.54736.53564,1.45125,1.45125,0,0,0-.19873.74121,1.36307,1.36307,0,0,0,.42676,1.01123A1.47615,1.47615,0,0,0,1008.3667,537.145Z" transform="translate(-904.99951 -519.00078)"/><rect class="a" x="100.92871" y="15.31953" width="0.40332" height="2.75537"/><path class="a" d="M1006.12842,533.83545a.31281.31281,0,0,0,.22168-.53467.313.313,0,0,0-.44238-.00049.30876.30876,0,0,0-.0918.22266.31426.31426,0,0,0,.3125.3125Z" transform="translate(-904.99951 -519.00078)"/><polygon class="a" points="99.115 18.074 99.276 18.074 100.518 15.319 99.993 15.319 99.193 17.099 98.409 15.365 98.389 15.319 97.865 15.319 99.095 18.028 99.115 18.074"/><path class="a" d="M996.92432,536.66943a.62652.62652,0,0,1-.4624-.26123l-.06006-.07031-.30273.35791.03809.05029a1.01214,1.01214,0,0,0,.80127.39844.80384.80384,0,0,0,.59766-.24561.8352.8352,0,0,0,.23779-.59814.77639.77639,0,0,0-.1416-.4541,1.4759,1.4759,0,0,0-.51465-.39648,1.21382,1.21382,0,0,1-.36182-.25488.30671.30671,0,0,1-.07471-.19336.262.262,0,0,1,.0874-.19531c.16064-.15332.41406-.09863.66211.15234l.05762.05811.314-.33789-.05322-.05322a1.08075,1.08075,0,0,0-.75049-.37549.74693.74693,0,0,0-.54834.22021.75588.75588,0,0,0-.21533.54736.76793.76793,0,0,0,.13525.44824,1.37721,1.37721,0,0,0,.48779.38525,1.32286,1.32286,0,0,1,.38086.25635.3214.3214,0,0,1,.07227.207.32592.32592,0,0,1-.11182.24756A.3806.3806,0,0,1,996.92432,536.66943Z" transform="translate(-904.99951 -519.00078)"/><path class="a" d="M999.63281,537.15234a1.427,1.427,0,0,0,1.30078-.85449l.03174-.07129-.42676-.19189-.03223.07227a.96068.96068,0,0,1-.87354.57324.97891.97891,0,1,1,.89893-1.32373h-1.72412v.44629h2.252v-.10205a1.42673,1.42673,0,1,0-1.42676,1.45166Z" transform="translate(-904.99951 -519.00078)"/><path class="a" d="M1001.78662,535.646a.92149.92149,0,0,1,.90039-.93945h.07861v-.49219h-.07861a1.40748,1.40748,0,0,0-1.37842,1.43164v1.42969h.478Z" transform="translate(-904.99951 -519.00078)"/><path class="a" d="M1011.61475,537.15234a1.427,1.427,0,0,0,1.30078-.85449l.03174-.07129-.42676-.19189-.03223.07227a.96068.96068,0,0,1-.87354.57324.97893.97893,0,0,1,0-1.95752.961.961,0,0,1,.89893.63379h-1.72461v.44629h2.25244v-.10205a1.42673,1.42673,0,1,0-1.42676,1.45166Z" transform="translate(-904.99951 -519.00078)"/><path class="a" d="M956.87109,545.9668c-.1626.0542-.30176.10107-.40527.13184a2.8483,2.8483,0,0,1-2.04541-.45605,1.913,1.913,0,0,1-.96924-1.18945,2.62867,2.62867,0,0,1,.29492-1.65771c.8833-.19336,1.624-.38623,2.481-.60986l.252-.06543c1.43359-.37354,4.87744-1.46631,5.8916-3.54053a2.67458,2.67458,0,0,0,.01855-2.32178,1.82084,1.82084,0,0,0-1.39795-1.12109c-1.7666-.33887-4.40137,1.15234-5.62646,2.36426-1.75684,1.73779-3.4458,3.63916-3.9043,5.76318a3.9269,3.9269,0,0,0,1.38428,4.01416,4.58864,4.58864,0,0,0,2.88379.99707,4.80119,4.80119,0,0,0,1.98145-.42725l.14648-.06592a3.20664,3.20664,0,0,0,1.3916-.93994c.41162-.58154.5293-.9751.35938-1.20361C959.2876,545.20459,958.07959,545.563,956.87109,545.9668Zm-1.40967-5.91748a14.75149,14.75149,0,0,1,2.11768-2.12549c.59033-.43994,2.28662-1.19482,2.89258-.66016.15234.13428.35791.44775.02344,1.03711a4.06189,4.06189,0,0,1-2.30566,1.6626l-.12549.03857c-.7998.24316-1.37793.41895-2.23682.63037l-1.06494.26221Z" transform="translate(-904.99951 -519.00078)"/></svg>